<mxfile host="app.diagrams.net" modified="2022-10-17T17:06:50.394Z" agent="5.0 (Windows NT 10.0; Win64; x64) AppleWebKit/537.36 (KHTML, like Gecko) Chrome/106.0.0.0 Safari/537.36" etag="BTx5hbEJejx1UC9Q96bW" version="20.4.1" type="github">
  <diagram id="sgHZVb4Lc6Njn4X_Mks3" name="PÃ¡gina-1">
    <mxGraphModel dx="1108" dy="1623" grid="1" gridSize="10" guides="1" tooltips="1" connect="1" arrows="1" fold="1" page="1" pageScale="1" pageWidth="827" pageHeight="1169" math="0" shadow="0">
      <root>
        <mxCell id="0" />
        <mxCell id="1" parent="0" />
        <mxCell id="5EtV0ziW0a3PA3CSQ0F3-5" value="Codigo" style="swimlane;fontStyle=0;childLayout=stackLayout;horizontal=1;startSize=30;horizontalStack=0;resizeParent=1;resizeParentMax=0;resizeLast=0;collapsible=1;marginBottom=0;" vertex="1" parent="1">
          <mxGeometry y="-280" width="140" height="60" as="geometry" />
        </mxCell>
        <mxCell id="5EtV0ziW0a3PA3CSQ0F3-6" value="Num = Entero(15)" style="text;strokeColor=none;fillColor=none;align=left;verticalAlign=middle;spacingLeft=4;spacingRight=4;overflow=hidden;points=[[0,0.5],[1,0.5]];portConstraint=eastwest;rotatable=0;" vertex="1" parent="5EtV0ziW0a3PA3CSQ0F3-5">
          <mxGeometry y="30" width="140" height="30" as="geometry" />
        </mxCell>
        <mxCell id="5EtV0ziW0a3PA3CSQ0F3-19" value="Producto" style="swimlane;fontStyle=0;childLayout=stackLayout;horizontal=1;startSize=30;horizontalStack=0;resizeParent=1;resizeParentMax=0;resizeLast=0;collapsible=1;marginBottom=0;" vertex="1" parent="1">
          <mxGeometry x="140" y="-280" width="140" height="60" as="geometry" />
        </mxCell>
        <mxCell id="5EtV0ziW0a3PA3CSQ0F3-20" value="Nombre = Caracter(15)" style="text;strokeColor=none;fillColor=none;align=left;verticalAlign=middle;spacingLeft=4;spacingRight=4;overflow=hidden;points=[[0,0.5],[1,0.5]];portConstraint=eastwest;rotatable=0;" vertex="1" parent="5EtV0ziW0a3PA3CSQ0F3-19">
          <mxGeometry y="30" width="140" height="30" as="geometry" />
        </mxCell>
        <mxCell id="5EtV0ziW0a3PA3CSQ0F3-23" value="Valor" style="swimlane;fontStyle=0;childLayout=stackLayout;horizontal=1;startSize=30;horizontalStack=0;resizeParent=1;resizeParentMax=0;resizeLast=0;collapsible=1;marginBottom=0;" vertex="1" parent="1">
          <mxGeometry x="280" y="-280" width="140" height="60" as="geometry" />
        </mxCell>
        <mxCell id="5EtV0ziW0a3PA3CSQ0F3-24" value="precio = Real(3,2)" style="text;strokeColor=none;fillColor=none;align=left;verticalAlign=middle;spacingLeft=4;spacingRight=4;overflow=hidden;points=[[0,0.5],[1,0.5]];portConstraint=eastwest;rotatable=0;" vertex="1" parent="5EtV0ziW0a3PA3CSQ0F3-23">
          <mxGeometry y="30" width="140" height="30" as="geometry" />
        </mxCell>
        <mxCell id="5EtV0ziW0a3PA3CSQ0F3-27" value="IVA" style="swimlane;fontStyle=0;childLayout=stackLayout;horizontal=1;startSize=30;horizontalStack=0;resizeParent=1;resizeParentMax=0;resizeLast=0;collapsible=1;marginBottom=0;" vertex="1" parent="1">
          <mxGeometry x="420" y="-280" width="140" height="60" as="geometry" />
        </mxCell>
        <mxCell id="5EtV0ziW0a3PA3CSQ0F3-28" value="impuesto = Real(3)" style="text;strokeColor=none;fillColor=none;align=left;verticalAlign=middle;spacingLeft=4;spacingRight=4;overflow=hidden;points=[[0,0.5],[1,0.5]];portConstraint=eastwest;rotatable=0;" vertex="1" parent="5EtV0ziW0a3PA3CSQ0F3-27">
          <mxGeometry y="30" width="140" height="30" as="geometry" />
        </mxCell>
      </root>
    </mxGraphModel>
  </diagram>
</mxfile>
